<svg viewBox="0 0 429.67 149.28" xmlns="http://www.w3.org/2000/svg" xmlns:xlink="http://www.w3.org/1999/xlink"><linearGradient id="a" gradientUnits="userSpaceOnUse" x1="341.85" x2="309.48" y1="30.59" y2="108.21"><stop offset="0" stop-color="#1cce28"/><stop offset=".21" stop-color="#20c52b"/><stop offset=".56" stop-color="#2aad33"/><stop offset="1" stop-color="#3b8640"/></linearGradient><linearGradient id="b" x1="276.19" x2="248.86" xlink:href="#a" y1="42.59" y2="108.96"/><linearGradient id="c" x1="338.35" x2="305.59" xlink:href="#a" y1="16.48" y2="93.91"/><linearGradient id="d" x1="208.16" x2="182.27" xlink:href="#a" y1="44.21" y2="106.3"/><linearGradient id="e" x1="155.63" x2="133.77" xlink:href="#a" y1="53.81" y2="106.9"/><linearGradient id="f" x1="205.36" x2="179.16" xlink:href="#a" y1="32.92" y2="94.87"/><linearGradient id="g" x1="101.25" x2="80.53" xlink:href="#a" y1="55.1" y2="104.78"/><linearGradient id="h" x1="59.22" x2="41.74" xlink:href="#a" y1="62.78" y2="105.26"/><linearGradient id="i" x1="99.01" x2="78.04" xlink:href="#a" y1="46.08" y2="95.63"/><path d="m314.05 69.67c4.25 8.55-1.06 27.09-1.64 29h10.59c8.78-13.5 9.91-20 9.91-20-9.09-8.57-18.86-9-18.86-9z" fill="url(#a)"/><path d="m258 60.44c-.68 16.12-7.41 36.83-8 38.25h10.5c7.34-7.66 10.83-18.36 10.83-18.36-1.42-11.46-13.33-19.89-13.33-19.89z" fill="url(#b)"/><path d="m375.27 51.81c.53-26.31-14.67-38.32-14.67-38.32-11.92-5.64-17-5.8-17-5.8-11.83-7.02-18.34-7.69-21.71-7.69a7.56 7.56 0 0 0 -2.48.3s-1.06 1.14-1.33 1.55c-2.33 3.08-7.54 10.66-9.16 27 2.23 7.33 15.35 17.53 15.35 17.53-11.25-3.16-18.35-16-18.35-16-1.19-10.19 1.45-19.46 1.14-20.07a.19.19 0 0 0 -.12 0c-22.12 2.8-37.07 11.44-37.07 11.44-10.08 6.32-16.94 21.61-16.94 21.61s-3.14 5.77-4.67 16.55c-.71 5-3.17 15.14-3.17 15.14a1.61 1.61 0 0 0 1.2-.39c5-12.89 9.54-18.31 9.57-18.3 23.14 9.64 19.84 40.14 19.57 42.33h10.57c5-11.21 5-26.57 5-26.57 43.38-19.46 55.53 24.57 56.1 26.57h10.56c-.1-2.34-4.46-21.85-10.46-34.76-5.63-12.14.68-15.79 1.62-16 4.38-.78 9 1.19 11.79 2.9 3.22 2 4.21 5.49 5.07 10 1.78 9.32 3.09 21.41 12.13 21.41 7.13 0 10.09-6.78 10.09-8.27l-1.49-.42c-2 2-4.25 3.13-6 3-4.41-.46-5.5-7.13-5.14-24.74zm-13.55-17.76a2.54 2.54 0 1 1 2.54-2.54 2.54 2.54 0 0 1 -2.54 2.54z" fill="url(#c)"/><g fill="#231f20"><path d="m258 60.44c-.06 1.35-.27 3.71-.39 5 8.91 9.08 10.17 23 10.17 23a55.88 55.88 0 0 0 3.57-8.08c-1.44-11.49-13.35-19.92-13.35-19.92z" opacity=".15"/><path d="m328.63 48.15c6.7 3.68 11.07 7.16 19.53 18.07-6.21-11.84-2.24-17.1.36-18.13 0 0-10.89 2.99-19.89.06z" opacity=".15"/><path d="m318.49 57.75c-19.81-11.44-42.94-10.53-58.7.6 18.8 11.3 15.9 38.29 15.65 40.35h10.56c5-11.21 5-26.57 5-26.57 43.37-19.46 55.53 24.56 56.1 26.57-2.1-15.95-12.29-31.53-28.61-40.95z" opacity=".1"/></g><path d="m311.92 28.1c2-14.81 5.55-21.72 8.31-24.16a9.45 9.45 0 0 1 5.08-1.69c5.38-.13 11.32 2.18 18.24 5.43-11.79-7.01-18.29-7.68-21.66-7.68a7.56 7.56 0 0 0 -2.48.3s-1.06 1.14-1.33 1.55c-2.33 3.08-7.54 10.66-9.16 27 2.23 7.33 15.35 17.53 15.35 17.53s-12.48-12.27-12.35-18.28z" fill="#fff" opacity=".2"/><path d="m279.68 50.44c7.62 3.56 11.92 12.28 11.32 21.68 0 0 2.5-1.14 4.89-2-.8-8.91-7.67-16.71-16.23-19.7z" fill="#231f20" opacity=".1"/><path d="m185.93 75.48c3.4 6.84-.84 21.67-1.31 23.21h8.46c7-10.8 7.93-16 7.93-16a25.71 25.71 0 0 0 -15.08-7.21z" fill="url(#d)"/><path d="m141.1 68.09c-.55 12.89-5.93 29.46-6.38 30.6h8.4c5.88-6.13 8.67-14.69 8.67-14.69-1.18-9.17-10.69-15.91-10.69-15.91z" fill="url(#e)"/><path d="m234.9 61.19c.43-21.05-11.73-30.66-11.73-30.66-9.53-4.51-13.58-4.64-13.58-4.64-9.48-5.61-14.69-6.15-17.39-6.15a6 6 0 0 0 -2 .24s-.85.91-1.07 1.24c-1.86 2.47-6 8.53-7.33 21.64 1.79 5.87 12.28 14 12.28 14-8.98-2.51-14.66-12.86-14.66-12.86-1-8.15 1.16-15.57.91-16.05a.15.15 0 0 0 -.1 0 86.22 86.22 0 0 0 -29.66 9.15c-8.06 5.08-13.57 17.32-13.57 17.32s-2.51 4.61-3.74 13.24c-.57 4-2.54 12.11-2.54 12.11a1.29 1.29 0 0 0 1-.31c4-10.32 7.64-14.65 7.65-14.64 18.5 7.74 15.88 32.11 15.66 33.87h8.44c4-9 4-21.25 4-21.25 34.7-15.57 44.42 19.66 44.88 21.25h8.45c-.08-1.87-3.57-17.48-8.37-27.81-4.51-9.71.54-12.63 1.3-12.76 3.5-.62 7.2.95 9.43 2.32 2.58 1.58 3.37 4.39 4.06 8 1.42 7.45 2.47 17.13 9.7 17.13a8.41 8.41 0 0 0 8.08-6.63l-1.19-.34c-1.57 1.64-3.4 2.5-4.82 2.36-3.53-.35-4.38-5.69-4.09-19.77zm-10.84-14.19a2 2 0 1 1 2-2 2 2 0 0 1 -2 2z" fill="url(#f)"/><path d="m141.1 68.09c0 1.08-.22 3-.31 4 7.13 7.26 8.14 18.37 8.14 18.37a44.71 44.71 0 0 0 2.86-6.46c-1.18-9.17-10.69-15.91-10.69-15.91z" fill="#231f20" opacity=".15"/><path d="m197.59 58.26c5.36 2.95 8.86 5.72 15.62 14.46-5-9.48-1.79-13.68.29-14.51 0 0-8.71 2.39-15.91.05z" fill="#231f20" opacity=".15"/><path d="m189.47 65.94c-15.85-9.15-34.35-8.42-47 .48 15 9 12.72 30.63 12.52 32.28h8.44c4-9 4-21.25 4-21.25 34.69-15.57 44.42 19.64 44.88 21.25-1.62-12.76-9.78-25.22-22.84-32.76z" fill="#231f20" opacity=".1"/><path d="m184.22 42.22c1.63-11.85 4.44-17.38 6.65-19.33a7.56 7.56 0 0 1 4.06-1.35c4.31-.11 9.06 1.75 14.59 4.34-9.46-5.6-14.66-6.13-17.35-6.13a6 6 0 0 0 -2 .24s-.85.91-1.07 1.24c-1.86 2.47-6 8.53-7.33 21.64 1.79 5.87 12.28 14 12.28 14s-9.93-9.87-9.83-14.65z" fill="#fff" opacity=".2"/><path d="m158.42 60.09c6.1 2.89 9.54 9.82 9.06 17.34 0 0 2-.91 3.92-1.58-.64-7.13-6.14-13.37-13-15.76z" fill="#231f20" opacity=".1"/><path d="m83.46 80.12c2.72 5.47-.68 17.34-1.05 18.57h6.77c5.62-8.64 6.34-12.82 6.34-12.82a20.57 20.57 0 0 0 -12.06-5.75z" fill="url(#g)"/><path d="m47.6 74.21c-.44 10.32-4.75 23.57-5.1 24.48h6.72a35 35 0 0 0 6.93-11.75c-.94-7.34-8.55-12.73-8.55-12.73z" fill="url(#h)"/><path d="m122.64 68.69c.34-16.84-9.39-24.53-9.39-24.53-7.63-3.61-10.87-3.71-10.87-3.71-7.58-4.45-11.75-4.92-13.9-4.92a4.84 4.84 0 0 0 -1.59.19s-.68.73-.85 1c-1.49 2-4.83 6.82-5.86 17.31 1.42 4.68 9.82 11.21 9.82 11.21-7.2-2.02-11.75-10.24-11.75-10.24-.76-6.52.93-12.45.73-12.84a.12.12 0 0 0 -.08 0 69 69 0 0 0 -23.72 7.32c-6.45 4-10.84 13.83-10.84 13.83a34.11 34.11 0 0 0 -3 10.6c-.45 3.2-2 9.69-2 9.69a1 1 0 0 0 .77-.25c3.17-8.25 6.11-11.72 6.12-11.71 14.8 6.2 12.7 25.69 12.53 27.09h6.75c3.22-7.18 3.22-17 3.22-17 27.76-12.46 35.54 15.73 35.9 17h6.76a102.29 102.29 0 0 0 -6.69-22.25c-3.61-7.77.43-10.1 1-10.21 2.8-.5 5.76.76 7.55 1.86 2.06 1.27 2.7 3.51 3.24 6.39 1.14 6 2 13.7 7.76 13.7a6.73 6.73 0 0 0 6.46-5.3l-1-.27a5.16 5.16 0 0 1 -3.86 1.89c-2.76-.31-3.44-4.54-3.21-15.85zm-8.64-11.37a1.63 1.63 0 1 1 1.63-1.63 1.63 1.63 0 0 1 -1.63 1.63z" fill="url(#i)"/><path d="m47.6 74.21c0 .86-.17 2.38-.25 3.21 5.7 5.81 6.51 14.7 6.51 14.7a35.76 35.76 0 0 0 2.29-5.17c-.94-7.35-8.55-12.74-8.55-12.74z" fill="#231f20" opacity=".15"/><path d="m92.79 66.35c4.29 2.36 7.09 4.58 12.5 11.57-4-7.58-1.44-10.95.23-11.61 0 0-6.97 1.91-12.73.04z" fill="#231f20" opacity=".15"/><path d="m86.3 72.49c-12.68-7.32-27.48-6.74-37.57.38 12 7.23 10.17 24.5 10 25.82h6.75c3.22-7.18 3.22-17 3.22-17 27.76-12.45 35.54 15.72 35.9 17-1.33-10.2-7.86-20.17-18.3-26.2z" fill="#231f20" opacity=".1"/><path d="m82.09 53.51c1.3-9.48 3.55-13.9 5.32-15.46a6 6 0 0 1 3.25-1.05c3.45-.09 7.25 1.4 11.67 3.48-7.54-4.48-11.7-4.95-13.85-4.95a4.84 4.84 0 0 0 -1.59.19s-.68.73-.85 1c-1.49 2-4.83 6.82-5.86 17.31 1.42 4.68 9.82 11.21 9.82 11.21s-8-7.88-7.91-11.73z" fill="#fff" opacity=".2"/><path d="m61.46 67.81c4.88 2.31 7.63 7.86 7.25 13.87 0 0 1.6-.73 3.13-1.26-.51-5.71-4.91-10.69-10.38-12.61z" fill="#231f20" opacity=".1"/><path d="m20.74 148.93v-16.2h-10.69v16.2h-10.05v-40.93h10.05v15.74h10.69v-15.74h10.05v40.9h-10.05z"/><path d="m64.74 144.68a15 15 0 0 1 -11.43 4.6 15 15 0 0 1 -11.43-4.6c-4.31-4.31-4.14-10.05-4.14-16.2s-.17-11.89 4.14-16.2a15 15 0 0 1 11.43-4.6 15 15 0 0 1 11.43 4.6c4.31 4.31 4.14 10.05 4.14 16.2s.17 11.9-4.14 16.2zm-7.41-26.25a5.43 5.43 0 0 0 -8 0c-.92 1.21-1.49 2.58-1.49 10.05s.57 8.79 1.49 10a5.32 5.32 0 0 0 8 0c.92-1.21 1.49-2.53 1.49-10s-.57-8.84-1.49-10.05z"/><path d="m96.51 148.93-7.24-15.22h-3.38v15.22h-10.05v-40.93h16.16c9.08 0 14 6.43 14 13.16a11.77 11.77 0 0 1 -6.66 10.68l8.85 17.06h-11.68zm-4.94-31.88h-5.68v8.27h5.69a4.14 4.14 0 1 0 -.01-8.27z"/><path d="m131 117v31.94h-10.07v-31.94h-10.05v-9h30.12v9z"/><path d="m171.43 144.68a16.51 16.51 0 0 1 -22.86 0c-4.31-4.31-4.14-10.05-4.14-16.2s-.17-11.89 4.14-16.2a16.51 16.51 0 0 1 22.86 0c4.31 4.31 4.14 10.05 4.14 16.2s.17 11.9-4.14 16.2zm-7.43-26.25a5.43 5.43 0 0 0 -8 0c-.92 1.21-1.49 2.58-1.49 10.05s.57 8.79 1.49 10a5.32 5.32 0 0 0 8 0c.92-1.21 1.49-2.53 1.49-10s-.55-8.84-1.49-10.05z"/><path d="m205.67 148.93-13.1-20.57v20.57h-10.05v-40.93h8.79l13.1 20.57v-20.57h10.05v40.9h-8.79z"/><path d="m259.44 148.93h-8.21l-6.61-20.16-6.62 20.16h-8.16l-11.24-40.93h10.51l5.34 21.6 6.61-21.6h7.12l6.61 21.6 5.34-21.6h10.51z"/><path d="m299.89 144.68a16.51 16.51 0 0 1 -22.86 0c-4.31-4.31-4.14-10.05-4.14-16.2s-.17-11.89 4.14-16.2a16.51 16.51 0 0 1 22.86 0c4.31 4.31 4.14 10.05 4.14 16.2s.17 11.9-4.14 16.2zm-7.41-26.25a5.43 5.43 0 0 0 -8 0c-.92 1.21-1.49 2.58-1.49 10.05s.57 8.79 1.49 10a5.32 5.32 0 0 0 8 0c.92-1.21 1.49-2.53 1.49-10s-.57-8.84-1.49-10.05z"/><path d="m331.66 148.93-7.24-15.22h-3.42v15.22h-10v-40.93h16.2c9.08 0 14 6.43 14 13.16a11.76 11.76 0 0 1 -6.66 10.68l8.85 17.06h-11.73zm-4.94-31.88h-5.72v8.27h5.69a4.14 4.14 0 1 0 .03-8.27z"/><path d="m371.25 148.93-9.42-16.77-3.45 4v12.81h-9.94v-40.97h9.94v14.48l11.83-14.48h12.29l-14 16.54 14.5 24.39z"/><path d="m398.76 149.28c-6.26 0-11.37-1.15-15.51-5.4l6.43-6.43c2.12 2.13 5.86 2.87 9.13 2.87 4 0 5.86-1.32 5.86-3.68a3.42 3.42 0 0 0 -.8-2.41 4.55 4.55 0 0 0 -2.7-1.09l-4.94-.69c-3.62-.52-6.38-1.72-8.21-3.62s-2.81-4.71-2.81-8.21c0-7.47 5.63-12.92 14.93-12.92 5.86 0 10.28 1.38 13.79 4.88l-6.32 6.32c-2.59-2.59-6-2.41-7.75-2.41-3.5 0-4.94 2-4.94 3.79a2.69 2.69 0 0 0 .8 1.9 4.61 4.61 0 0 0 2.81 1.21l4.94.69c3.68.52 6.32 1.67 8 3.39 2.18 2.12 3 5.17 3 9 .09 8.27-7.09 12.81-15.71 12.81z"/><path d="m424 119a5.64 5.64 0 1 1 5.64-5.64 5.64 5.64 0 0 1 -5.64 5.64zm0-10.24a4.6 4.6 0 1 0 4.5 4.6 4.52 4.52 0 0 0 -4.5-4.63zm1.18 7.64-1.18-2.4h-.78v2.42h-1.12v-6.09h2.29a1.89 1.89 0 0 1 2 1.87 1.7 1.7 0 0 1 -1.2 1.65l1.36 2.57h-1.26zm-1-5.14h-1v1.84h1a.92.92 0 1 0 .03-1.87z"/></svg>