<svg enable-background="new 0 0 148.01 152.42" height="152.42" viewBox="0 0 148.01 152.42" width="148.01" xmlns="http://www.w3.org/2000/svg"><g fill="#fff"><path d="m76.856 41.274c-2.898 6.115-1.747 11.134 2.581 11.213 4.329.075 10.193-4.815 13.089-10.927 2.904-6.118 1.751-11.141-2.578-11.22-4.328-.071-10.189 4.823-13.092 10.934zm35.268-22.079c.036.015.059.054.059.093 0 .014-.002.025-.005.032-2.587 7.328-6.878 15.67-11.131 21.996-8.959 13.301-21.819 21.689-28.718 18.728-6.895-2.953-5.236-16.136 3.731-29.443 2.019-2.986 4.232-5.721 6.523-8.141.016-.018.029-.043.029-.072 0-.054-.047-.1-.102-.1 0 0-.011 0-.012.004-2.818.39-5.673.945-8.553 1.672-.02.004-.041.018-.056.036-30.268 37.115-43.149 85.319-41.377 128.32 0 .058-.043.1-.1.1-.013 0-.027 0-.038-.004-17.844-7.192-30.884-24.427-32.241-46.248l-.018-.251c-2.25-38.827 28.704-78.599 69.149-88.834 15.674-3.97 30.482-2.925 42.86 2.112z"/><path d="m100.682 123.911c-2.941 2.041-6.009 3.927-9.176 5.628-.014.004-.032.011-.047.011-.054 0-.1-.043-.104-.097-.591-9.322-2.599-18.352-6.072-25.866-9.258-20.06-25.444-21.603-36.136-3.444-6.543 11.113-9.522 27.037-8.716 42.325 0 .043.03.079.07.09 11.345 3.555 24.413 3.945 38.356.426 40.39-10.29 71.281-50.019 69.038-88.806-1.98-34.072-28.858-56.087-62.742-54.046-.023 0-.048.011-.063.029-3.295 3.333-6.38 6.698-9.274 10.096-.014.018-.023.043-.023.064 0 .058.047.104.1.104 0 0 .007 0 .014-.004 19.855-2.513 35.769 1.521 46.157 9.795.022.018.034.047.034.078 0 .018-.004.04-.012.054-35.782 50.437-31.353 79.175-21.37 103.441.006.011.009.022.009.036 0 .036-.018.068-.043.086z"/></g></svg>