<?xml version="1.0" encoding="utf-8"?>
<!-- Generator: Adobe Illustrator 18.1.1, SVG Export Plug-In . SVG Version: 6.00 Build 0)  -->
<svg version="1.1" id="Layer_1" xmlns="http://www.w3.org/2000/svg" xmlns:xlink="http://www.w3.org/1999/xlink" x="0px" y="0px"
	 width="42px" height="42px" viewBox="0 0 42 42" enable-background="new 0 0 42 42" xml:space="preserve">
<g>
	<path fill="#0085A8" d="M13.3,2.6C15.7,1.5,18.3,1,21,1s5.3,0.5,7.7,1.6s4.6,2.5,6.4,4.3c1.8,1.8,3.2,3.9,4.3,6.4
		c1.1,2.5,1.6,5,1.6,7.7s-0.5,5.3-1.6,7.7c-1.1,2.5-2.5,4.6-4.3,6.4c-1.8,1.8-3.9,3.2-6.4,4.3c-2.5,1.1-5,1.6-7.7,1.6
		s-5.3-0.5-7.7-1.6c-2.5-1.1-4.6-2.5-6.4-4.3s-3.2-3.9-4.3-6.4S1,23.7,1,21s0.5-5.3,1.6-7.7s2.5-4.6,4.3-6.4S10.8,3.7,13.3,2.6z
		 M21.9,3.6c-0.3,0.3-0.8,0.5-1.3,0.7c-0.5,0.2-0.9,0.3-1.2,0.4c-0.3,0.1-0.8,0.2-1.5,0.3c-0.7,0.1-1.1,0.2-1.4,0.2
		c-0.3,0.1-0.9,0.1-1.6,0c-0.7-0.1-1.2,0-1.6,0.1c-0.5,0.2-1.1,0.5-1.8,0.9c-0.7,0.5-1.1,0.9-1.2,1.2c-0.1,0.3,0,0.5,0.2,0.8
		C10.9,8.5,11,8.7,11,8.8c-0.1,0.8-0.4,1.8-1,3.2c-0.6,1.3-0.9,2.2-1,2.7c-0.2,0.8-0.2,1.9,0.2,3.2c0.3,1.4,0.4,2.4,0.3,3
		c0,0.2,0.2,0.7,0.6,1.5c0.4,0.8,0.6,1.5,0.6,2.1c0.3,0,0.5,0.1,0.8,0.2c0.3,0.1,0.5,0.3,0.8,0.5c0.3,0.2,0.5,0.4,0.7,0.5
		c0.4,0.2,0.8,0.4,1.1,0.5c0.4,0.2,0.9,0.3,1.4,0.5c0.5,0.2,0.9,0.3,1.2,0.4c0.5,0.2,1.1,0.6,1.8,1.1c0.7,0.5,1.4,1,2.1,1.3
		c0.7,0.3,1.3,0.5,2,0.4c0.2,0.3,0.1,0.7-0.1,1.2c-0.2,0.4-0.5,0.9-0.8,1.4c-0.3,0.5-0.4,0.9-0.3,1.3c0.3,0.5,0.6,0.9,0.8,1.2
		c0.2,0.3,0.5,0.6,1,1c0.4,0.3,0.8,0.5,1.3,0.6c0,0.2,0,0.3-0.1,0.6c-0.1,0.2-0.1,0.4-0.1,0.5c0,0.1,0.1,0.3,0.2,0.6
		c2.4,0,5-1.3,7.7-3.9c0.7-0.7,1.2-1.2,1.6-1.6c0.4-0.4,0.8-1,1.2-1.7s0.7-1.4,0.7-2.2c-0.3-0.2-0.7-0.3-1.3-0.3
		c-0.6,0-1-0.1-1.2-0.3c-0.3-0.2-0.9-0.3-1.7-0.5c-0.8-0.2-1.4-0.4-1.8-0.7c-0.4,0-0.9,0-1.4,0c-0.5,0-1,0-1.5,0.1
		c-0.5,0-0.9,0.1-1.5,0.2c-0.5,0.1-0.9,0.3-1.3,0.6c-1.2,0.8-1.9,0.9-2.3,0.4c-0.1,0-0.1-0.3-0.1-0.9c0-0.6,0-0.9,0-0.9
		c-0.1-0.3-0.4-0.5-0.9-0.6c-0.5-0.1-0.8-0.2-0.9-0.2c0-0.3,0-0.7,0-1.1c0-0.4-0.1-0.7-0.2-1c-0.1-0.3-0.3-0.4-0.6-0.4
		c-0.3,0-0.7,0.3-1.1,0.7c-0.5,0.6-1,0.5-1.5-0.1c-0.4-0.6-0.5-1.3-0.3-2c0.1-0.4,0.4-0.6,0.8-0.8c0.1,0,0.4,0,0.9,0.1
		c0.5,0,0.9,0.1,1.2,0.1c0.3,0.1,0.5,0.2,0.7,0.5c0.2,0.3,0.4,0.6,0.6,0.8c0.3,0.3,0.5,0.5,0.7,0.7c0.2,0.2,0.5,0.4,0.7,0.5
		c0.2,0.1,0.4,0.3,0.5,0.4l0.2,0.1c0-0.3,0.1-0.6,0.3-1.1c0.1-0.4,0.2-0.8,0.3-1.2c0.1-0.4,0.1-0.7,0-1.1c-0.1-0.4,0-0.7,0.1-1
		c0.2-0.3,0.4-0.5,0.6-0.8c0.3-0.3,0.4-0.5,0.5-0.9c0.1-0.3,0.3-0.7,0.4-1.2c0.1-0.5,0.2-0.8,0.3-1.1c0.1-0.2,0.3-0.5,0.5-0.8
		c0.3-0.3,0.7-0.5,1.2-0.8c-0.1-0.4,0-0.8,0.3-1.3c0.2,0,0.5,0,0.8,0.1c0.4,0,0.7,0.1,0.9,0.1c0.2,0,0.4-0.1,0.7-0.2
		c0.3-0.1,0.5-0.3,0.7-0.5c-0.2-0.5-0.6-1-1.1-1.5c-0.5-0.5-0.9-0.8-1.3-1C27,10,26.4,9.7,25.7,9.3c-0.8-0.4-1.3-0.7-1.5-0.8
		c0,0,0-0.1,0.1-0.3c0-0.2,0.1-0.3,0.1-0.4c0-0.1,0-0.2,0.1-0.4c0-0.1,0-0.2,0-0.3c0-0.1-0.1-0.1-0.2-0.2c0.7,0.3,1.4,0.5,2,0.5
		c0.6,0,1.1,0,1.3-0.1L28,7.2c0.1-0.6,0-1.2-0.3-1.6c-0.3-0.4-0.8-0.7-1.3-0.8c-0.5-0.1-1.1-0.3-1.7-0.5c-0.6-0.2-1.1-0.4-1.4-0.7
		C22.8,3.7,22.4,3.7,21.9,3.6z M21.5,7.3c0,0.4,0.1,0.9,0.3,1.5c0.2,0.6,0.4,1.1,0.6,1.6c0.2,0.5,0.3,0.7,0.3,0.8
		c-0.2,0-0.6-0.1-1.4-0.2c-0.7-0.1-1.3-0.2-1.8-0.3c-0.5-0.1-0.9-0.3-1.3-0.6c0.1-0.3,0.3-0.6,0.6-1c0.3-0.4,0.5-0.7,0.6-0.9
		c0.2,0.2,0.5,0.3,0.7,0.3c0.2,0,0.4-0.1,0.5-0.2c0.1-0.1,0.3-0.3,0.5-0.5C21.1,7.6,21.3,7.4,21.5,7.3z"/>
</g>
</svg>
