<?xml version="1.0" encoding="utf-8"?>
<!-- Generator: Adobe Illustrator 18.1.1, SVG Export Plug-In . SVG Version: 6.00 Build 0)  -->
<svg version="1.1" id="Layer_1" xmlns="http://www.w3.org/2000/svg" xmlns:xlink="http://www.w3.org/1999/xlink" x="0px" y="0px"
	 width="22px" height="22px" viewBox="0 0 22 22" enable-background="new 0 0 22 22" xml:space="preserve">
<g>
	<path fill="#00A2CC" d="M11,1c1.4,0,2.6,0.5,3.5,1.5c1,1,1.5,2.2,1.5,3.5v4.2c0,0.5-0.2,1.1-0.5,1.6c-0.3,0.6-0.7,0.9-1.2,0.9v1.2
		c0,0.1,0,0.2,0.1,0.4c0.1,0.1,0.2,0.2,0.3,0.3l6,3.8c0.1,0.1,0.2,0.1,0.3,0.3C21,18.8,21,18.9,21,19v1.6c0,0.1,0,0.2-0.1,0.3
		c-0.1,0.1-0.2,0.1-0.3,0.1H1.4c-0.1,0-0.2,0-0.3-0.1C1,20.8,1,20.7,1,20.6V19c0-0.1,0-0.2,0.1-0.4c0.1-0.1,0.2-0.2,0.3-0.3l6-3.8
		c0.1-0.1,0.2-0.2,0.3-0.3c0.1-0.1,0.1-0.2,0.1-0.4v-1.2c-0.4,0-0.8-0.3-1.2-0.9C6.2,11.2,6,10.6,6,10.1V6c0-1.4,0.5-2.6,1.5-3.5
		C8.4,1.5,9.6,1,11,1z"/>
</g>
</svg>
