<?xml version="1.0" encoding="utf-8"?>
<!-- Generator: Adobe Illustrator 18.1.1, SVG Export Plug-In . SVG Version: 6.00 Build 0)  -->
<svg version="1.1" id="Layer_1" xmlns="http://www.w3.org/2000/svg" xmlns:xlink="http://www.w3.org/1999/xlink" x="0px" y="0px"
	 width="22px" height="22px" viewBox="0 0 22 22" enable-background="new 0 0 22 22" xml:space="preserve">
<g>
	<path fill="#00A2CC" d="M10.8,1.1c1.3,0,2.6,0.3,3.7,1c1.1,0.7,2,1.6,2.7,2.8c0.7,1.2,1,2.4,1,3.7c0,1.3-0.4,2.8-1.2,4.4
		c-0.8,1.2-1.7,2.5-2.7,3.9c-1,1.3-1.8,2.4-2.5,3.1l-0.9,1.1c-0.1-0.1-0.3-0.2-0.4-0.4c-0.2-0.2-0.6-0.6-1.1-1.2
		c-0.5-0.6-1.1-1.2-1.6-1.8c-0.5-0.6-1.1-1.3-1.7-2.2c-0.6-0.9-1.2-1.7-1.6-2.5c-0.7-1.5-1-2.9-1-4.3c0-1,0.2-2,0.6-2.9
		s0.9-1.7,1.6-2.4C6.2,2.7,7,2.1,7.9,1.7C8.8,1.3,9.8,1.1,10.8,1.1z M13.5,5.6c-0.7-0.7-1.6-1.1-2.7-1.1c-1,0-1.9,0.4-2.7,1.1
		C7.4,6.3,7,7.2,7,8.3s0.4,2,1.1,2.7c0.7,0.7,1.6,1.1,2.7,1.1c1,0,1.9-0.4,2.7-1.1c0.7-0.7,1.1-1.6,1.1-2.7S14.3,6.3,13.5,5.6z"/>
</g>
</svg>
