<?xml version="1.0" encoding="utf-8"?>
<!-- Generator: Adobe Illustrator 18.1.1, SVG Export Plug-In . SVG Version: 6.00 Build 0)  -->
<svg version="1.1" id="Layer_1" xmlns="http://www.w3.org/2000/svg" xmlns:xlink="http://www.w3.org/1999/xlink" x="0px" y="0px"
	 width="22px" height="22px" viewBox="0 0 22 22" enable-background="new 0 0 22 22" xml:space="preserve">
<g>
	<path fill="#A0A0A0" d="M9.2,0.4h3.7c0.5,0,0.9,0.2,1.3,0.5c0.4,0.4,0.5,0.8,0.5,1.3V4h5.5c0.5,0,0.9,0.2,1.3,0.5
		C21.8,5,22,5.4,22,5.9v7.3h-9.2v-1.8H9.2v1.8H0V5.9C0,5.4,0.2,5,0.5,4.6c0.4-0.4,0.8-0.5,1.3-0.5h5.5V2.2c0-0.5,0.2-0.9,0.5-1.3
		C8.2,0.6,8.7,0.4,9.2,0.4z M22,15.1v3.7c0,0.5-0.2,0.9-0.5,1.3c-0.4,0.4-0.8,0.5-1.3,0.5H1.8c-0.5,0-0.9-0.2-1.3-0.5
		C0.2,19.7,0,19.2,0,18.7V15L22,15.1L22,15.1z M9.2,2.2V4h3.7V2.2H9.2z"/>
</g>
</svg>
