<?xml version="1.0" encoding="utf-8"?>
<!-- Generator: Adobe Illustrator 18.1.1, SVG Export Plug-In . SVG Version: 6.00 Build 0)  -->
<svg version="1.1" id="Layer_1" xmlns="http://www.w3.org/2000/svg" xmlns:xlink="http://www.w3.org/1999/xlink" x="0px" y="0px"
	 width="42px" height="42px" viewBox="0 0 42 42" enable-background="new 0 0 42 42" xml:space="preserve">
<g>
	<path fill="#0085A8" d="M36.8,27.8h1.7c0.2,0,0.4,0.1,0.6,0.3s0.3,0.4,0.3,0.6v11.7c0,0.2-0.1,0.4-0.3,0.6
		c-0.2,0.2-0.4,0.3-0.6,0.3h-35c-0.2,0-0.4-0.1-0.6-0.3c-0.2-0.2-0.3-0.4-0.3-0.6V28.6c0-0.2,0.1-0.4,0.3-0.6s0.4-0.3,0.6-0.3h1.7
		c0.2,0,0.4,0.1,0.6,0.3S6,28.4,6,28.6v5.8h30v-5.8c0-0.2,0.1-0.4,0.3-0.6S36.6,27.8,36.8,27.8z M17.7,1.1h6.7
		c0.5,0,0.9,0.2,1.2,0.5C25.8,1.9,26,2.3,26,2.8v15h6.4c0.4,0,0.7,0.1,0.8,0.4c0.1,0.3,0,0.6-0.3,0.9L22.1,32.4
		C21.8,32.8,21.4,33,21,33s-0.8-0.2-1.1-0.5L9,19.1c-0.3-0.4-0.4-0.7-0.3-0.9c0.1-0.3,0.4-0.4,0.8-0.4H16v-15c0-0.5,0.2-0.9,0.5-1.2
		S17.2,1.1,17.7,1.1z"/>
</g>
</svg>
