<?xml version="1.0" encoding="utf-8"?>
<!-- Generator: Adobe Illustrator 18.1.1, SVG Export Plug-In . SVG Version: 6.00 Build 0)  -->
<svg version="1.1" id="Layer_1" xmlns="http://www.w3.org/2000/svg" xmlns:xlink="http://www.w3.org/1999/xlink" x="0px" y="0px"
	 width="22px" height="22px" viewBox="0 0 22 22" enable-background="new 0 0 22 22" xml:space="preserve">
<g>
	<path fill="#00A2CC" d="M9.2,0h3.7c0.5,0,0.9,0.2,1.3,0.5c0.4,0.4,0.5,0.8,0.5,1.3v1.8h5.5c0.5,0,0.9,0.2,1.3,0.5
		C21.8,4.6,22,5,22,5.5v7.3h-9.2V11H9.2v1.8H0V5.5C0,5,0.2,4.6,0.5,4.2c0.4-0.4,0.8-0.5,1.3-0.5h5.5V1.8c0-0.5,0.2-0.9,0.5-1.3
		C8.2,0.2,8.7,0,9.2,0z M22,14.7v3.7c0,0.5-0.2,0.9-0.5,1.3c-0.4,0.4-0.8,0.5-1.3,0.5H1.8c-0.5,0-0.9-0.2-1.3-0.5
		C0.2,19.3,0,18.8,0,18.3v-3.7L22,14.7L22,14.7z M9.2,1.8v1.8h3.7V1.8H9.2z"/>
</g>
</svg>
