<?xml version="1.0" encoding="utf-8"?>
<!-- Generator: Adobe Illustrator 18.1.1, SVG Export Plug-In . SVG Version: 6.00 Build 0)  -->
<svg version="1.1" id="Layer_1" xmlns="http://www.w3.org/2000/svg" xmlns:xlink="http://www.w3.org/1999/xlink" x="0px" y="0px"
	 width="52px" height="42px" viewBox="0 0 52 42" enable-background="new 0 0 52 42" xml:space="preserve">
<g>
	<path fill="#0085A8" d="M50.7,12.1L26.1,23.1l-14.6-6.6l-3,2.3v8.7l3.9,5.8v7.7l-5.8-5.7L0.7,41v-7.7l3.9-5.8v-9.7
		c0-0.1,0-0.2,0-0.4c0-0.2,0-0.3,0-0.4c0-0.1,0-0.2,0-0.3c0-0.1,0.1-0.2,0.1-0.3c0.1-0.1,0.1-0.2,0.3-0.2l1.8-1.5l-5.7-2.5L25.9,1.2
		L50.7,12.1z M39.4,27.1l-13.5,6.4l-13.5-6.4v-5.7l13.5,6.4l13.5-6.4V27.1z"/>
</g>
</svg>
