<svg xmlns="http://www.w3.org/2000/svg" width="22" height="24" viewBox="0 0 22 24">
    <g fill="#D0021B" fill-rule="nonzero">
        <path d="M2 2v20h18V2H2zM0 0h22v24H0V0z"/>
        <path d="M17.807 14.832c-.105.313-.529.444-1.293.175-.209-.073-.496-.263-.823-.546-.186-.16-.628-.587-.628-.587s.737-.077.968-.083c.376-.008.675.023.863.088.764.27 1.019.64.913.953m-5.494-1.51a52.01 52.01 0 0 0-2.821.766c.115-.276.235-.565.364-.88l.197-.496c.275-.688.557-1.42.836-2.156.428.698.9 1.392 1.436 2.046.17.207.345.403.52.596-.173.04-.348.08-.532.124m-5.259 3.322c-.185.334-.366.58-.519.71-.617.528-1.06.56-1.27.306-.208-.252-.1-.69.519-1.219.169-.145.477-.297.883-.438.231-.08.817-.246.817-.246s-.315.684-.43.887m3.293-11.453c.323-.028.612.312.682 1.134.02.223-.034.568-.155.988-.068.235-.265.807-.268.82L10.6 8.13c-.01-.018-.367-.654-.464-.862-.161-.347-.255-.639-.272-.841-.071-.82.157-1.208.482-1.237m6.926 7.565c-.341-.12-.766-.164-1.269-.154-.27.007-.558.029-.859.066-.317.038-.633.089-.934.147l-.084.017a12.938 12.938 0 0 1-.906-.992 17.525 17.525 0 0 1-1.794-2.68 10.552 10.552 0 0 0 .567-1.515c.158-.547.232-1.023.198-1.424-.12-1.408-.886-2.31-1.947-2.214-1.06.095-1.663 1.118-1.543 2.526.032.367.165.781.38 1.244.116.248.252.507.407.773.164.28.337.554.512.81l.059.085a154.311 154.311 0 0 1-1.283 3.308 54.227 54.227 0 0 1-.709 1.683c-.034.006-.063.01-.102.018-.262.047-.538.106-.816.175-.303.073-.59.157-.858.248-.53.183-.955.394-1.258.652-1.062.91-1.347 2.064-.663 2.896.685.83 1.853.748 2.914-.16.28-.238.534-.586.783-1.03.134-.24.263-.503.388-.785.077-.17.138-.343.207-.514l.194-.413a48.258 48.258 0 0 1 4.937-1.317c.155.179.318.36.491.542.219.226.437.434.652.62.428.37.823.633 1.197.764 1.31.46 2.429.113 2.775-.912.348-1.027-.324-2.004-1.636-2.464"/>
    </g>
</svg>
